<svg xmlns="http://www.w3.org/2000/svg" viewBox="0 0 512 512">
  <rect width="512" height="512" rx="112" fill="#071321"/>
  <rect x="42" y="42" width="428" height="428" rx="96" fill="#0e233a"/>
  <circle cx="256" cy="232" r="126" fill="#f8fafc"/>
  <path d="M170 140c38 36 46 82 30 136-9 31-9 62 2 94" fill="none" stroke="#cf4650" stroke-width="15" stroke-linecap="round"/>
  <path d="M342 140c-38 36-46 82-30 136 9 31 9 62-2 94" fill="none" stroke="#cf4650" stroke-width="15" stroke-linecap="round"/>
  <g stroke="#cf4650" stroke-width="9" stroke-linecap="round">
    <path d="M185 178l-22 15"/><path d="M194 215l-24 11"/><path d="M196 254l-24 5"/><path d="M194 294l-23-3"/>
    <path d="M327 178l22 15"/><path d="M318 215l24 11"/><path d="M316 254l24 5"/><path d="M318 294l23-3"/>
  </g>
  <rect x="145" y="376" width="222" height="62" rx="31" fill="#123f5b"/>
  <circle cx="180" cy="407" r="10" fill="#3ddc97"/>
  <text x="215" y="421" font-family="Arial,Helvetica,sans-serif" font-size="40" font-weight="800" fill="#f6f8fb">LIVE</text>
</svg>